<svg version="1.2" xmlns="http://www.w3.org/2000/svg" viewBox="0 0 48 32" width="48" height="32"><defs><clipPath clipPathUnits="userSpaceOnUse" id="cp1"><path d="m-320-316h1226v784h-1226z"/></clipPath></defs><style>.a{fill:#dfe3e8}.b{fill:#296db6}</style><g clip-path="url(#cp1)"><path class="a" d="m0 4c0-2.2 1.8-4 4-4h40c2.2 0 4 1.8 4 4v24c0 2.2-1.8 4-4 4h-40c-2.2 0-4-1.8-4-4z"/><path class="b" d="m3.6 10.5l0.6 1.4h-1.8l0.5-1.4 0.4-0.8 0.3 0.8z"/><path fill-rule="evenodd" class="b" d="m45.3 7.2v8.2h-3.4l-1-1.6v1.6h-4.9l-0.5-1.2h-1.1l-0.5 1.2h-2.8c-0.9 0-1.8-0.2-2.5-0.7v0.7h-4.8l-1.1-1.5v1.5h-18.4l-0.4-1.2h-1.2l-0.4 1.2h-2.3v-4.4l1.6-3.8h3.3l0.9 2.1v-2.1h4l0.6 1.8 0.6-1.8h17.6v0.9c0.8-0.6 1.6-0.9 2.5-0.9h5.4l1 2.1v-2.1h3.1l1.1 1.7v-1.7zm-38.6 6.9l-2.5-5.6h-1.7l-2.5 5.7h1.5l0.5-1.2h2.6l0.5 1.1zm7.3-5.6h-2.2l-1.1 3.3-0.2 0.6-0.2-0.6-1.1-3.3h-2.2v5.6h1.3v-4.5l0.3 0.8 1.3 3.7h1.2l1.3-3.7 0.3-0.8v4.5h1.3zm5.6 0h-4.5v5.6h4.5v-1.2h-3.2v-1h3.1v-1.2h-3.1v-1h3.2zm6.3 5.7l-1.9-2.1c0.9-0.1 1.6-0.9 1.6-1.8 0-0.5-0.2-1-0.6-1.3-0.4-0.4-0.9-0.5-1.4-0.5h-3.1v5.7h1.4v-2h0.6l1.7 2zm1.6-5.7h-1.4v5.7h1.4zm4.1 4.4h-0.5c-0.4 0-0.8-0.1-1.1-0.4-0.3-0.3-0.4-0.7-0.3-1.2-0.1-0.4 0.1-0.9 0.3-1.2 0.3-0.3 0.7-0.4 1.1-0.4h1.5v-1.2h-1.6c-0.7-0.1-1.4 0.2-2 0.7-0.5 0.6-0.8 1.3-0.7 2.1-0.1 0.8 0.2 1.5 0.7 2 0.5 0.6 1.2 0.9 1.9 0.8h0.1zm6.8 1.2l-2.4-5.6h-1.8l-2.4 5.7h1.4l0.5-1.2h2.7l0.4 1.1zm5.7-5.7h-1.4v3.7l-0.3-0.6-2-3h-1.7v5.7h1.3v-3.8l0.4 0.6 2.1 3.1h1.6zm-20.6 1.3q0.2-0.1 0.4 0.1 0.3 0.2 0.3 0.5 0 0.3-0.2 0.5-0.3 0.1-0.5 0.1h-1.6v-1.2z"/><path fill-rule="evenodd" class="b" d="m47.9 19.2v3.1c-0.2-0.6-0.9-1-1.6-0.9h-1.3c-0.2 0-0.4-0.1-0.5-0.3-0.1-0.1-0.1-0.4 0-0.5 0.1-0.2 0.3-0.3 0.5-0.2h2.5zm-4.3 0.4c-0.4 0.3-0.6 0.8-0.6 1.3 0 0.5 0.2 0.9 0.5 1.2 0.4 0.4 0.8 0.5 1.3 0.5h1.3c0.2-0.1 0.4 0 0.5 0.2 0.1 0.1 0.1 0.4 0 0.5-0.1 0.2-0.3 0.3-0.5 0.3h-2.9v1.2h2.9c0.8 0 1.5-0.4 1.8-1.2v1.9c-0.6 0.4-1.2 0.5-1.8 0.5h-15.6l-1.2-1.4v1.4h-3.4v-2q-0.8 0.2-1.5 0.2h-0.6v1.8h-5l-0.9-1.2-0.9 1.2h-8.2v-8.1h8.3l0.8 1.2 0.9-1.2h29.1v1.2h-2.9c-0.5 0-1 0.1-1.4 0.5zm-29-0.5h-4.5v5.6h4.5v-1.2h-3.1v-1h3.1v-1.2h-3.1v-1h3.1zm6.4 5.7l-2.3-2.8 2.3-2.9h-1.7l-1.4 1.8-1.4-1.8h-1.7l2.3 2.9-2.2 2.8h1.6l1.4-1.8 1.4 1.8zm3.3-1.9c0.5 0 1-0.2 1.4-0.5 0.4-0.4 0.6-0.9 0.6-1.4 0-0.6-0.2-1.1-0.5-1.4-0.4-0.4-1-0.6-1.5-0.5h-3.1v5.6h1.4v-1.8zm8.1 1.8l-1.9-2.1c0.6 0 1.1-0.4 1.4-1 0.2-0.6 0.2-1.3-0.2-1.8-0.4-0.5-1-0.8-1.7-0.7h-3v5.6h1.3v-2h0.6l1.7 2zm4.9-5.6h-4.6v5.6h4.6v-1.2h-3.2v-1h3.1v-1.2h-3.1v-1h3.2zm3.6 5.6c0.5 0.1 1-0.1 1.3-0.5 0.4-0.3 0.6-0.8 0.6-1.3 0-0.4-0.2-0.9-0.5-1.2-0.4-0.3-0.8-0.5-1.3-0.4h-1.3c-0.2 0-0.4 0-0.5-0.2-0.1-0.2-0.1-0.4 0-0.6 0.1-0.2 0.3-0.2 0.5-0.2h2.4l0.6-1.2h-3c-0.4-0.1-0.9 0.1-1.3 0.4-0.4 0.4-0.6 0.9-0.6 1.4 0 0.4 0.2 0.9 0.5 1.2 0.3 0.3 0.8 0.5 1.3 0.4h1.3c0.2 0 0.4 0.1 0.5 0.2 0.1 0.2 0.1 0.4 0 0.6-0.1 0.2-0.3 0.3-0.5 0.2h-2.9v1.2zm-11-4.4q0.3-0.1 0.5 0.1 0.2 0.2 0.2 0.5 0 0.3-0.2 0.5-0.2 0.2-0.5 0.1h-1.6v-1.2zm-5.7 0c0.4 0 0.7 0.3 0.7 0.7 0 0.4-0.3 0.7-0.7 0.7h-1.6v-1.4z"/></g></svg>