<svg version="1.2" xmlns="http://www.w3.org/2000/svg" viewBox="0 0 48 32" width="48" height="32"><defs><clipPath clipPathUnits="userSpaceOnUse" id="cp1"><path d="m-321-192h1226v784h-1226z"/></clipPath></defs><style>.a{fill:#fff}.b{fill:#296db6}</style><g clip-path="url(#cp1)"><path class="a" d="m0 4c0-2.2 1.8-4 4-4h40c2.2 0 4 1.8 4 4v24c0 2.2-1.8 4-4 4h-40c-2.2 0-4-1.8-4-4z"/><path class="b" d="m8.9 17.9v8.2h8.2l0.9-1.3 0.8 1.3h5.1v-1.9h0.5q0.8 0 1.5-0.2v2.1h3.5v-1.5l1.1 1.5h15.7c0.6 0 1.2-0.2 1.8-0.5v3.4c-0.5 1.8-2.1 3-3.9 3h-40.1c-2.2 0-4-1.8-4-4v-12.6h2.3l0.4-1.2h1.2l0.4 1.2h18.4v-1.5l1.1 1.5h4.8v-0.7c0.7 0.5 1.6 0.7 2.5 0.7h2.8l0.5-1.2h1.1l0.5 1.2h4.9v-1.6l1 1.6h3.4v-8.2h-3.6v1.7l-1.1-1.7h-3.1v2.1l-1-2.1h-5.4c-0.9 0-1.7 0.3-2.5 0.9v-0.9h-17.6l-0.6 1.8-0.6-1.8h-4v2.1l-0.9-2.1h-3.3l-1.6 3.8v-7c0-2.2 1.8-4 4-4h40.1c1.8 0 3.4 1.2 3.9 3v14.9h-29.1l-0.9 1.2-0.8-1.2z"/><path fill-rule="evenodd" class="b" d="m11.5 20.4v1h3.1v1.2h-3.1v1h3.2v1.2h-4.5v-5.6h4.5v1.2zm9.6 4.4h-1.8l-1.3-1.8-1.4 1.8h-1.6l2.2-2.8-2.3-2.9h1.7l1.4 1.8 1.4-1.7h1.6l-2.2 2.8zm3.3-5.7c0.5 0 1 0.2 1.4 0.5 0.4 0.4 0.6 0.9 0.6 1.4 0 0.5-0.2 1-0.6 1.4-0.4 0.4-0.9 0.5-1.4 0.5h-1.7v1.9h-1.4v-5.6h3.1zm-0.1 2.5c0.4 0 0.7-0.3 0.7-0.7 0-0.3-0.3-0.6-0.7-0.6h-1.6v1.4h1.6zm8.2 3h-1.7l-1.7-2h-0.6v2h-1.4v-5.5h3.1c1-0.2 1.8 0.5 2 1.5 0.1 1-0.6 1.9-1.6 2zm-2.4-3.2q0.2 0.1 0.5-0.1 0.2-0.2 0.2-0.5 0-0.3-0.2-0.5-0.3-0.2-0.5-0.1h-1.6v1.3h1.6zm4.1-1.2v1h3.1v1.2h-3.1v1h3.2v1.2h-4.6v-5.6h4.6v1.2zm6.9 1c0.5-0.1 0.9 0.1 1.3 0.4 0.3 0.3 0.5 0.8 0.5 1.2 0 0.5-0.2 1-0.6 1.4-0.3 0.3-0.8 0.5-1.3 0.5h-3v-1.2h3c0.2 0 0.4-0.1 0.5-0.3 0.1-0.1 0.1-0.4 0-0.5-0.1-0.2-0.3-0.3-0.5-0.2h-1.4c-0.4 0-0.9-0.1-1.2-0.5-0.4-0.3-0.5-0.7-0.5-1.2 0-0.5 0.2-1 0.6-1.3 0.3-0.4 0.8-0.5 1.3-0.5h3l-0.6 1.2h-2.4c-0.2 0-0.4 0.1-0.5 0.3-0.1 0.1-0.1 0.4 0 0.5 0.1 0.2 0.3 0.3 0.5 0.2h1.3zm3.9-1c-0.2 0-0.4 0.1-0.6 0.3-0.1 0.1-0.1 0.4 0 0.5 0.2 0.2 0.4 0.3 0.6 0.2h1.3c0.7 0 1.4 0.3 1.7 1v1.3c-0.3 0.8-1.1 1.3-1.9 1.2h-2.8v-1.2h2.8c0.3 0 0.5-0.1 0.6-0.2 0.1-0.2 0.1-0.4 0-0.6-0.1-0.2-0.3-0.3-0.6-0.2h-1.2c-0.5 0-1-0.1-1.3-0.4-0.4-0.4-0.5-0.8-0.5-1.3 0-0.5 0.2-1 0.6-1.3 0.3-0.3 0.8-0.5 1.3-0.4h3l-0.6 1.2h-2.4z"/><path fill-rule="evenodd" class="b" d="m6.6 14.2h-1.5l-0.5-1.2h-2.6l-0.5 1.1h-1.5l2.4-5.6h1.8zm-2.4-2.3l-0.6-1.3-0.3-0.9-0.4 0.9-0.5 1.3zm9.7-3.4v5.7h-1.4v-4.6l-0.2 0.9-1.3 3.7h-1.2l-1.3-3.7-0.3-0.9v4.6h-1.3v-5.7h2.2l1.1 3.3 0.2 0.6 0.2-0.6 1.1-3.3zm2.4 1.2v1h3.1v1.3h-3.1v1h3.2v1.2h-4.5v-5.7h4.5v1.2zm9.4 4.4h-1.7l-1.6-2h-0.7v2h-1.4v-5.6h3.1c0.5-0.1 1 0.1 1.4 0.4 0.4 0.4 0.6 0.9 0.6 1.4 0 0.9-0.6 1.7-1.5 1.8zm-2.5-3.2q0.3 0 0.5-0.2 0.2-0.2 0.2-0.5 0-0.2-0.2-0.4-0.2-0.2-0.5-0.2h-1.5v1.3zm4.1-2.5v5.7h-1.4v-5.7zm3.6 1.2c-0.4 0-0.8 0.2-1.1 0.5-0.3 0.3-0.4 0.7-0.3 1.1v0.1c-0.1 0.4 0 0.8 0.3 1.1 0.3 0.3 0.7 0.5 1.1 0.5h0.5l-0.6 1.2h-0.1c-0.7 0-1.4-0.3-1.9-0.8-0.5-0.6-0.8-1.3-0.7-2v-0.1c0-0.7 0.2-1.5 0.7-2 0.5-0.5 1.3-0.8 2-0.8h1.6v1.2zm7.2 4.5h-1.5l-0.5-1.2h-2.7l-0.5 1.2h-1.4l2.4-5.7h1.8zm-2.5-2.3l-0.5-1.3-0.4-0.9-0.3 0.9-0.6 1.3zm8.2-3.4v5.7h-1.6l-2.1-3.2-0.4-0.6v3.8h-1.3v-5.6h1.7l2 3 0.3 0.6v-3.7z"/></g></svg>