<svg version="1.2" xmlns="http://www.w3.org/2000/svg" viewBox="0 0 48 32" width="48" height="32"><defs><clipPath clipPathUnits="userSpaceOnUse" id="cp1"><path d="m-769-192h1226v784h-1226z"/></clipPath></defs><style>.a{fill:#ebecec}.b{fill:#c2c1c0}.c{fill:#f7941f}.d{fill:#fff}</style><g clip-path="url(#cp1)"><path class="a" d="m0 4c0-2.2 1.8-4 4-4h40c2.2 0 4 1.8 4 4v24c0 2.2-1.8 4-4 4h-40c-2.2 0-4-1.8-4-4z"/><path fill-rule="evenodd" class="b" d="m44 2c1.1 0 2 0.9 2 2v24c0 1.1-0.9 2-2 2h-40c-1.1 0-2-0.9-2-2v-24c0-1.1 0.9-2 2-2zm0-2h-40c-2.2 0-4 1.8-4 4v24c0 2.2 1.8 4 4 4h40c2.2 0 4-1.8 4-4v-24c0-2.2-1.8-4-4-4z"/><path class="c" d="m34.3 18.6c-1.4 5.6-7.2 9.1-12.9 7.7-5.6-1.4-9.1-7.2-7.7-12.9 1.4-5.6 7.2-9.1 12.9-7.7 2.7 0.7 5 2.4 6.5 4.8 1.4 2.4 1.9 5.3 1.2 8.1z"/><path fill-rule="evenodd" class="d" d="m28.7 14.4c-0.1 0.9-0.7 1.6-1.5 1.7 0.5 0.3 1 0.7 1.2 1.2 0.2 0.6 0.1 1.2-0.2 1.7-0.6 1.8-2.1 1.9-4.1 1.5l-0.4 2-1.2-0.3 0.5-1.9-1-0.3-0.4 1.9-1.2-0.2 0.5-2-0.8-0.2-1.6-0.4 0.6-1.3 0.9 0.2q0.1 0.1 0.3 0 0.1-0.1 0.2-0.3l0.8-3 0.5-2.1c0-0.4-0.2-0.7-0.5-0.7 0 0-0.9-0.2-0.9-0.2l0.3-1.3 1.6 0.4 0.8 0.2 0.5-1.9 1.1 0.3-0.4 1.8 0.9 0.3 0.5-1.9 1.1 0.3-0.5 1.9c1.5 0.5 2.6 1.3 2.4 2.7zm-5.6 1.7l-0.7 2.5c0.8 0.2 3.2 1 3.6-0.4 0.4-1.5-2.2-1.9-2.9-2.1zm3.3-1.7c0.3-1.4-1.8-1.7-2.4-1.8l-0.6 2.3c0.6 0.2 2.6 0.8 3-0.5z"/></g></svg>