<svg version="1.2" xmlns="http://www.w3.org/2000/svg" viewBox="0 0 48 32" width="48" height="32"><defs><clipPath clipPathUnits="userSpaceOnUse" id="cp1"><path d="m-1104-316h1226v784h-1226z"/></clipPath></defs><style>.a{fill:#dfe3e8}.b{fill:#211e1f}.c{fill:#0779be}.d{fill:#fff}</style><g clip-path="url(#cp1)"><path class="a" d="m0 4c0-2.2 1.8-4 4-4h40c2.2 0 4 1.8 4 4v24c0 2.2-1.8 4-4 4h-40c-2.2 0-4-1.8-4-4z"/><path fill-rule="evenodd" class="b" d="m10.4 23h-1.8v-0.2c0.4 0 0.6 0 0.6-0.5v-3.1c0-0.6-0.3-0.6-0.6-0.6v-0.2h1.9c0.7 0 1.3 0.2 1.8 0.6 0.5 0.5 0.8 1.1 0.8 1.7 0 0.7-0.4 2.3-2.7 2.3zm-0.6-0.8c0 0.5 0.4 0.6 0.7 0.6 0.5 0 1-0.2 1.4-0.6 0.4-0.4 0.5-0.9 0.5-1.4 0-0.6-0.2-1.1-0.6-1.5-0.4-0.4-0.9-0.6-1.4-0.6q-0.3 0-0.5 0z"/><path class="b" d="m14.7 23v-0.2h-0.1c-0.2 0-0.3 0-0.3-0.2v-2.5-0.1q-0.1 0-0.1 0-0.4 0.2-0.7 0.3v0.1c0.2 0.1 0.3 0.1 0.3 0.4v1.8c0 0.2-0.1 0.2-0.3 0.2h-0.1v0.2h1.4z"/><path class="b" d="m14 19.1q0.2 0 0.3-0.1 0.1-0.1 0.1-0.3c0-0.1-0.2-0.3-0.4-0.3-0.1 0-0.3 0.2-0.3 0.3 0 0.2 0.2 0.4 0.3 0.4z"/><path class="b" d="m18.2 22.9h-0.1c-0.2 0-0.3 0-0.3-0.3v-1.6c0-0.5-0.2-0.9-0.8-0.9-0.4 0-0.8 0.2-1.1 0.5v-0.4q0-0.1 0-0.1-0.4 0.2-0.9 0.3v0.1c0.3 0.1 0.4 0.2 0.4 0.5v1.7c0 0.2-0.1 0.2-0.3 0.2h-0.1v0.1h1.4v-0.2h-0.2c-0.1 0-0.3 0-0.3-0.2v-1.9q0.4-0.2 0.8-0.3 0.2 0 0.4 0.1 0.2 0.2 0.2 0.5v1.6c0 0.3-0.2 0.3-0.3 0.3h-0.2v0.1h1.4z"/><path fill-rule="evenodd" class="b" d="m18.5 22.7c-0.2-0.2-0.4-0.6-0.4-0.9 0-1.3 0.9-1.7 1.3-1.7 0.3 0 0.6 0.1 0.8 0.3 0.2 0.2 0.4 0.4 0.3 0.7v0.1h-1.8q-0.1 0.2 0 0.4c-0.1 0.6 0.4 1.1 1 1.1 0.3 0 0.6-0.1 0.8-0.4l0.1 0.1c-0.2 0.4-0.7 0.7-1.2 0.7-0.3 0-0.7-0.1-0.9-0.4zm0.9-2.4q0 0 0 0zm0 0c-0.4 0-0.6 0.3-0.7 0.7h1.1c0.2 0 0.2-0.1 0.2-0.1q0-0.3-0.2-0.5-0.1-0.1-0.4-0.1zm0 0q0 0 0 0 0 0 0 0z"/><path class="b" d="m20.9 22.9h-0.2v0.1h1.7v-0.2h-0.3c-0.2 0-0.4 0-0.4-0.2v-1.5c0.1-0.3 0.3-0.5 0.5-0.5 0.3 0 0.3 0.1 0.5 0.1q0.1 0 0.2-0.1 0.1-0.1 0.1-0.2 0-0.1-0.1-0.2-0.2-0.1-0.3-0.1c-0.4 0-0.7 0.4-0.8 0.6v-0.6c0 0 0 0-0.1 0-0.1 0-0.3 0.1-0.8 0.3v0.1c0.1 0 0.3 0.1 0.3 0.3v1.8c0 0.3-0.1 0.3-0.3 0.3z"/><path class="b" d="m24.1 22.9c-0.5 0-0.8-0.3-0.9-0.8h-0.1l0.1 0.8q0.4 0.2 0.8 0.2c0.8 0 1.1-0.5 1.1-0.9 0-1-1.5-0.8-1.5-1.5q0-0.2 0.2-0.4 0.1-0.1 0.3-0.1c0.4 0 0.7 0.3 0.7 0.7h0.2l-0.1-0.7q-0.3-0.2-0.7-0.2-0.4 0-0.7 0.2-0.3 0.3-0.3 0.7c0 1 1.4 0.8 1.4 1.5q0 0.3-0.1 0.4-0.2 0.2-0.4 0.1z"/><path class="b" d="m30.9 22.8l0.1-1h-0.1c-0.1 0.7-0.7 1.2-1.4 1.2-1.1-0.1-2-1.1-1.9-2.3-0.1-0.5 0.1-1 0.5-1.4 0.3-0.4 0.8-0.7 1.3-0.7 0.7 0 1.3 0.4 1.4 1.1h0.2l-0.1-0.9q-0.7-0.3-1.5-0.4c-1.3 0-2.4 1-2.5 2.3 0 0.7 0.2 1.4 0.7 1.8 0.5 0.5 1.2 0.7 1.8 0.7q0.8-0.1 1.5-0.4z"/><path class="b" d="m32.6 23v-0.2h-0.1c-0.2 0-0.3 0-0.3-0.2v-4.5-0.1c0 0-0.1 0-0.2 0.1q-0.3 0.2-0.6 0.3v0.1c0.2 0 0.3 0.1 0.3 0.5v3.6c0 0.2-0.1 0.2-0.3 0.2h-0.1v0.2h1.4z"/><path class="b" d="m33 20.7v1.7q0 0.3 0.2 0.5 0.2 0.2 0.5 0.2c0.5 0 0.9-0.2 1.2-0.5v0.5q0.4-0.1 0.9-0.2v-0.1h-0.2c-0.1 0-0.2 0-0.2-0.1v-2.4q0-0.1 0-0.1c0 0-0.4 0-1 0v0.2c0.2 0 0.5 0.1 0.5 0.2v1.8q-0.3 0.3-0.7 0.4c-0.6 0-0.6-0.6-0.6-0.8v-1.7c0-0.1 0-0.1-0.1-0.1h-0.8v0.1c0.3 0.1 0.3 0.2 0.3 0.4z"/><path fill-rule="evenodd" class="b" d="m35.8 18.5v-0.1q0.4-0.1 0.7-0.3h0.1c0.1 0 0.1 0 0.1 0v2.4c0.2-0.2 0.6-0.4 1-0.4 0.3 0 0.6 0.1 0.9 0.4 0.2 0.3 0.3 0.6 0.3 0.9 0 0.9-0.7 1.7-1.6 1.7q-0.4 0-0.9-0.2l-0.2 0.2-0.1-0.1q0.1-0.6 0.1-1.2v-2.8c0-0.4-0.1-0.4-0.4-0.5zm0.9 3.8c0 0.3 0.3 0.6 0.6 0.6 0.7 0 1-0.7 1-1.2 0.1-0.6-0.4-1.2-1-1.3q-0.3 0-0.6 0.3z"/><path class="b" d="m9.1 24.5h-0.5v0.1h0.1c0.1 0 0.2 0 0.2 0.2v1.8c0 0.2-0.1 0.2-0.2 0.2h-0.1v0.2h0.5 0.6v-0.1h-0.1c-0.1 0-0.2 0-0.2-0.2v-1.9c0-0.2 0.1-0.2 0.2-0.2h0.1v-0.2z"/><path class="b" d="m12.2 24.5h-0.5v0.1h0.1c0.1 0 0.3 0 0.3 0.3v1.3l-1.5-1.7q-0.2 0-0.4 0h-0.4v0.1h0.1q0.1 0 0.2 0.1 0.1 0.1 0.1 0.2v1.5c0 0.3-0.1 0.4-0.3 0.4h-0.1v0.2h0.5 0.5v-0.1h-0.1c-0.3 0-0.3-0.1-0.3-0.4v-1.5l1.8 2h0.1q0-0.2 0-0.4v-1.6c0-0.4 0.2-0.4 0.3-0.4h0.1v-0.2z"/><path class="b" d="m15.1 24.3c0 0.1 0 0.1-0.1 0.1h-1.9c-0.1 0-0.1 0-0.2-0.1h-0.1q0 0.2 0 0.3 0 0.2 0 0.3h0.2c0-0.2 0-0.3 0.3-0.3h0.5v1.9c0 0.3 0 0.3-0.2 0.3h-0.1v0.2h0.6 0.6v-0.1h-0.1c-0.2 0-0.3 0-0.3-0.3v-2h0.6c0.2 0 0.2 0.2 0.2 0.4l0.1-0.1v-0.3q0-0.1 0-0.3h-0.1z"/><path class="b" d="m17.3 26.3c-0.1 0.4-0.3 0.4-0.7 0.4-0.3 0-0.5 0-0.5-0.2v-0.8h0.5c0.2 0 0.2 0.1 0.2 0.3h0.1q0-0.2 0-0.4 0-0.2 0-0.4h-0.1c0 0.2-0.1 0.3-0.3 0.3h-0.4v-0.9h0.5c0.4 0 0.4 0.2 0.4 0.4h0.1q0-0.1 0-0.3v-0.2h-0.9-0.8v0.1c0.1 0 0.3 0 0.3 0.2v1.8c0 0.2-0.2 0.2-0.3 0.2v0.2h0.9 1c0-0.2 0.1-0.4 0.1-0.6h-0.1z"/><path fill-rule="evenodd" class="b" d="m19.6 26.6c0.1 0.2 0.2 0.3 0.4 0.3v0.1l-0.4-0.1q-0.2 0-0.3 0-0.4-0.5-0.8-1.1h-0.2v0.8c0 0.3 0.1 0.3 0.3 0.3h0.1v0.1h-1.2v-0.2h0.1c0.1 0 0.3-0.1 0.3-0.2v-1.8c0-0.2-0.2-0.2-0.3-0.2h-0.1v-0.2h1.2c0.4 0 0.8 0.2 0.8 0.7 0 0.3-0.2 0.5-0.5 0.6zm-0.6-1.5q0-0.2-0.1-0.3-0.2-0.2-0.4-0.2h-0.2v1h0.2c0.3 0 0.5-0.1 0.5-0.5z"/><path class="b" d="m22.9 24.6v-0.2h-0.4-0.5v0.2h0.1c0.1 0 0.3 0 0.3 0.3v1.3l-1.6-1.8q-0.2 0-0.3 0h-0.4v0.2q0.1 0 0.2 0.1 0.1 0.1 0.1 0.2v1.5c0 0.3 0 0.4-0.3 0.4v0.2h0.4 0.5v-0.1h-0.1c-0.2 0-0.3-0.1-0.3-0.4v-1.5l1.8 2h0.2q0-0.2 0-0.4v-1.6c0-0.4 0.1-0.4 0.3-0.4z"/><path fill-rule="evenodd" class="b" d="m25.1 26.7q0 0.1 0.1 0.2 0.2 0 0.3 0v0.1h-1.1v-0.1h0.1c0.1 0 0.2-0.1 0.2-0.1q0-0.1-0.1-0.3l-0.1-0.4h-0.8l-0.1 0.4q0 0.1-0.1 0.3c0 0.1 0.2 0.1 0.3 0.1v0.1h-0.8v-0.2c0.2 0 0.3-0.1 0.3-0.2l0.6-1.6q0.1-0.3 0.1-0.5 0.2 0 0.3-0.1v0.1l0.7 1.8c0 0.1 0.1 0.3 0.1 0.4zm-1.1-1.8l-0.3 0.9h0.6z"/><path class="b" d="m27.5 24.3c0 0.1-0.1 0.1-0.2 0.1h-1.9c-0.1 0-0.1 0-0.1-0.1h-0.2q0.1 0.2 0 0.3 0 0.2 0 0.3h0.2c0-0.2 0-0.3 0.3-0.3h0.6v1.9c0 0.3-0.1 0.3-0.3 0.3h-0.1v0.2h0.6 0.6v-0.1h-0.1c-0.2 0-0.3 0-0.3-0.3v-2h0.6c0.2 0 0.2 0.2 0.2 0.4l0.1-0.1q0-0.1 0-0.3 0-0.1 0-0.3h-0.1z"/><path class="b" d="m28.2 24.5h-0.5v0.1c0.2 0 0.3 0 0.3 0.2v1.8c0 0.2-0.1 0.2-0.3 0.2v0.2h0.5 0.6v-0.1h-0.1c-0.1 0-0.2 0-0.2-0.2v-1.9c0-0.2 0.1-0.2 0.2-0.2h0.1v-0.2z"/><path fill-rule="evenodd" class="b" d="m31.1 24.7c0.3 0.2 0.5 0.6 0.5 0.9 0 0.4-0.2 0.8-0.4 1-0.3 0.3-0.6 0.4-1 0.4-0.4 0-0.7-0.1-1-0.4-0.2-0.2-0.3-0.5-0.3-0.9 0-0.3 0.1-0.7 0.3-0.9 0.3-0.3 0.6-0.4 1-0.4 0.3 0 0.7 0.1 0.9 0.3zm-0.9-0.1c-0.6 0-0.8 0.5-0.8 1 0 0.6 0.2 1.2 0.8 1.2 0.7 0 0.8-0.6 0.8-1.1 0-0.5-0.3-1.1-0.8-1.1z"/><path class="b" d="m34.5 24.6v-0.2h-0.4-0.5v0.2h0.1c0.1 0 0.2 0 0.2 0.3v1.3l-1.5-1.8q-0.2 0-0.3 0h-0.4v0.2q0.1 0 0.2 0.1 0.1 0.1 0.1 0.2v1.5c0 0.3-0.1 0.4-0.3 0.4v0.2h0.4 0.5v-0.1h-0.1c-0.2 0-0.3-0.1-0.3-0.4v-1.5l1.8 2h0.2q-0.1-0.2 0-0.4v-1.6c0-0.4 0.1-0.4 0.3-0.4z"/><path fill-rule="evenodd" class="b" d="m36.8 26.8q0.1 0.1 0.2 0.1v0.1h-1.1v-0.1h0.1c0.1 0 0.2-0.1 0.2-0.1q0-0.1-0.1-0.3l-0.1-0.4h-0.7l-0.1 0.4q0 0.1 0 0.3c0 0.1 0.1 0.1 0.2 0.1v0.1h-0.8v-0.2c0.1 0 0.3-0.1 0.3-0.2l0.6-1.6q0-0.3 0.1-0.5 0.2 0 0.3-0.1v0.1l0.7 1.8q0 0.2 0.1 0.4 0 0.1 0.1 0.1zm-1.2-1.9l-0.4 0.9h0.7z"/><path class="b" d="m39 26.3q0 0.1-0.1 0.3-0.1 0.1-0.3 0.1h-0.5c-0.1 0-0.2 0-0.2-0.2v-1.7c0-0.2 0.1-0.2 0.2-0.2h0.1v-0.2h-0.5-0.6v0.2h0.1c0.1 0 0.2 0 0.2 0.2v1.8c0 0.2-0.1 0.2-0.2 0.2h-0.1v0.2h1 0.9c0-0.2 0.1-0.4 0.1-0.6h-0.1z"/><path fill-rule="evenodd" class="b" d="m39 24.4q0.2 0 0.3 0.1 0.1 0.1 0.1 0.2c0 0.2-0.2 0.4-0.4 0.4-0.2 0-0.4-0.2-0.4-0.4 0-0.2 0.2-0.3 0.4-0.3zm0 0.6q0.1 0 0.2-0.1 0.1-0.1 0.1-0.2c0-0.2-0.1-0.3-0.3-0.3-0.2 0-0.3 0.1-0.3 0.3 0 0.2 0.1 0.3 0.3 0.3z"/><path fill-rule="evenodd" class="b" d="m39.1 24.8v0.1c-0.1 0-0.1-0.1-0.2-0.2v0.2c0 0-0.1 0-0.1 0 0-0.1 0-0.4 0-0.4h0.2q0.1 0 0.2 0.1 0 0.1-0.1 0.1zm-0.1 0c0 0 0-0.1 0-0.1q0-0.1 0-0.1 0 0 0 0v0.2z"/><path class="c" d="m25.4 17.6c3.5 0 6.4-2.7 6.5-6.3 0-1.7-0.7-3.3-1.9-4.5-1.3-1.2-2.9-1.8-4.6-1.8h-3c-1.7 0-3.4 0.6-4.6 1.8-1.2 1.2-1.8 2.9-1.8 4.5 0.1 3.5 2.9 6.3 6.4 6.3z"/><path fill-rule="evenodd" class="d" d="m22.4 5.5c3.2 0 5.8 2.6 5.8 5.8 0 3.2-2.6 5.7-5.8 5.7-3.2 0-5.7-2.5-5.7-5.7 0-3.2 2.5-5.8 5.7-5.8zm-3.6 5.8c0 1.5 0.9 2.8 2.3 3.4v-6.8c-1.4 0.5-2.3 1.9-2.3 3.4zm7.3 0c0-1.5-1-2.9-2.4-3.4v6.8c1.4-0.5 2.4-1.9 2.4-3.4z"/><path class="c" d="m25.4 17.6c3.5 0 6.4-2.7 6.5-6.3 0-1.7-0.7-3.3-1.9-4.5-1.3-1.2-2.9-1.8-4.6-1.8h-3c-1.7 0-3.4 0.6-4.6 1.8-1.2 1.2-1.8 2.9-1.8 4.5 0.1 3.5 2.9 6.3 6.4 6.3z"/><path fill-rule="evenodd" class="d" d="m22.4 5.5c3.2 0 5.8 2.6 5.8 5.8 0 3.2-2.6 5.7-5.8 5.7-3.2 0-5.7-2.5-5.7-5.7 0-3.2 2.5-5.8 5.7-5.8zm-3.6 5.8c0 1.5 0.9 2.8 2.3 3.4v-6.8c-1.4 0.5-2.3 1.9-2.3 3.4zm7.3 0c0-1.5-1-2.9-2.4-3.4v6.8c1.4-0.5 2.4-1.9 2.4-3.4z"/></g></svg>