<svg version="1.2" xmlns="http://www.w3.org/2000/svg" viewBox="0 0 48 33" width="48" height="33"><defs><clipPath clipPathUnits="userSpaceOnUse" id="cp1"><path d="m-544-316h1226v784h-1226z"/></clipPath></defs><style>.a{fill:#dfe3e8}.b{fill:#ee7623}.c{fill:#231f20}</style><g clip-path="url(#cp1)"><path class="a" d="m48 4v24c0 2.2-1.8 4-4 4h-40q-0.7 0-1.4-0.2c-1.5-0.6-2.6-2.1-2.6-3.8v-24c0-2.2 1.8-4 4-4h40c2.2 0 4 1.8 4 4z"/><path class="b" d="m48 16v12c0 2.2-1.8 4-4.1 4h-40.5q-0.7 0-1.4-0.2c3.4-0.5 6.7-1.1 9.9-1.8 0.9-0.2 1.7-0.4 2.5-0.6 13.4-3 25-7.5 31.6-11.9q1.1-0.7 2-1.5z"/><path fill-rule="evenodd" class="c" d="m5.8 10.6c1.4-0.1 2.7 0.7 3.2 2 0.6 1.3 0.2 2.8-0.9 3.7-0.6 0.5-1.5 0.7-2.3 0.7h-1.8v-6.4h1.8zm1.5 4.9c0.5-0.4 0.7-1 0.7-1.6 0-0.6-0.2-1.2-0.7-1.6-0.5-0.4-1.1-0.6-1.7-0.5h-0.3v4.2h0.3c0.6 0.1 1.2-0.1 1.7-0.5z"/><path class="c" d="m9.8 10.6h1.3v6.4h-1.3z"/><path class="c" d="m14.2 13.1c-0.8-0.3-1-0.5-1-0.8 0-0.4 0.4-0.7 0.9-0.7 0.4 0 0.8 0.2 1 0.5l0.6-0.9c-0.5-0.4-1.1-0.7-1.8-0.7-0.5 0-1 0.2-1.4 0.5-0.4 0.4-0.6 0.8-0.6 1.4 0 0.8 0.4 1.3 1.5 1.7q0.5 0.2 0.9 0.4c0.2 0.1 0.4 0.4 0.4 0.6 0 0.3-0.1 0.6-0.3 0.7-0.2 0.2-0.5 0.3-0.7 0.3-0.6 0-1.1-0.4-1.4-0.9l-0.8 0.8c0.5 0.8 1.4 1.3 2.3 1.2 0.6 0 1.1-0.2 1.6-0.6 0.4-0.4 0.6-0.9 0.6-1.5 0-1-0.4-1.5-1.8-2z"/><path class="c" d="m16.4 13.8c0 0.9 0.4 1.8 1 2.4 0.6 0.7 1.5 1 2.4 1q0.8 0 1.6-0.4v-1.5c-0.4 0.5-1 0.7-1.5 0.7-0.6 0.1-1.2-0.2-1.6-0.6-0.4-0.4-0.6-1-0.6-1.6 0-0.5 0.2-1.1 0.6-1.5 0.4-0.4 0.9-0.7 1.5-0.7 0.6 0 1.2 0.3 1.6 0.7v-1.4q-0.7-0.4-1.6-0.4c-0.9 0-1.7 0.3-2.4 0.9-0.6 0.7-1 1.5-1 2.4z"/><path class="c" d="m31.3 14.9l-1.7-4.3h-1.4l2.7 6.6h0.7l2.8-6.6h-1.4l-1.7 4.3z"/><path class="c" d="m34.9 17h3.6v-1h-2.3v-1.8h2.2v-1.1h-2.2v-1.4h2.3v-1.1h-3.6v6.4z"/><path fill-rule="evenodd" class="c" d="m44 17h-1.5l-1.8-2.5h-0.1v2.5h-1.3v-6.4h1.9c1.4 0 2.3 0.7 2.3 1.9 0 0.9-0.6 1.7-1.5 1.9zm-1.8-4.4c0-0.7-0.4-1-1.2-1h-0.4v1.9h0.4c0.7 0 1.2-0.2 1.2-0.9z"/><path class="b" d="m28.6 13.8c0 1.9-1.5 3.4-3.4 3.4-1.9 0-3.4-1.5-3.4-3.4 0-1.8 1.5-3.4 3.4-3.4 1.9 0 3.4 1.6 3.4 3.4z"/><path fill-rule="evenodd" class="c" d="m44.2 11.2h-0.2l-0.2-0.3v0.3h-0.1v-0.6h0.2q0.2 0 0.2 0.2 0 0.1-0.1 0.1zm-0.3-0.3c0.1 0 0.1 0 0.1-0.1q0-0.1-0.1-0.1v0.2z"/><path fill-rule="evenodd" class="c" d="m44.3 10.5q0.2 0.1 0.2 0.4c0 0.2-0.3 0.5-0.5 0.5-0.3 0-0.5-0.3-0.5-0.5 0-0.3 0.2-0.5 0.4-0.5q0.3 0 0.4 0.1zm-0.1 0.7q0.1-0.2 0.1-0.3c0-0.2-0.2-0.4-0.4-0.4-0.2 0-0.3 0.2-0.3 0.4q-0.1 0.1 0.1 0.3 0.1 0.1 0.2 0.1 0.2 0 0.3-0.1z"/></g></svg>