<svg version="1.2" xmlns="http://www.w3.org/2000/svg" viewBox="0 0 48 32" width="48" height="32"><defs><clipPath clipPathUnits="userSpaceOnUse" id="cp1"><path d="m-880-316h1226v784h-1226z"/></clipPath></defs><style>.a{fill:#dfe3e8}.b{fill:#fff}.c{fill:#40a648}.d{fill:#0d67b0}.e{fill:#be2034}</style><g clip-path="url(#cp1)"><path class="a" d="m0 4c0-2.2 1.8-4 4-4h40c2.2 0 4 1.8 4 4v24c0 2.2-1.8 4-4 4h-40c-2.2 0-4-1.8-4-4z"/><path class="b" d="m8 10.4h9.9v13.5h-9.9z"/><path class="b" d="m19.1 10.4h9.9v11.9h-9.9z"/><path class="b" d="m30.1 10.1h9.9v13h-9.9z"/><path class="c" d="m32.1 18.6h2.3 0.3c0.5-0.1 0.8-0.5 0.8-1 0-0.5-0.3-0.9-0.8-1q-0.2 0-0.3 0h-2.3z"/><path class="c" d="m34.1 4c-2.2 0-4 1.8-4 4v4.1h5.7q0.2 0 0.4 0c1.3 0.1 2.2 0.8 2.2 1.9 0 1-0.8 1.8-1.8 1.8 1.3 0.1 2.3 0.8 2.3 2 0 1.1-1.1 2-2.6 2h-6.2v8.2h5.9c2.2 0 4-1.8 4-4v-20z"/><path class="c" d="m35.2 14.3c0.1-0.5-0.3-0.9-0.8-1h-0.2-2.1v1.9h2.1q0.1 0.1 0.2 0c0.5 0 0.8-0.4 0.8-0.9z"/><path class="d" d="m12 4c-2.2 0-4 1.8-4 4v9.9c1.1 0.5 2.2 0.8 3.4 0.9 0.6 0 1.2-0.1 1.6-0.5 0.4-0.4 0.6-1 0.6-1.5v-4.7h3.4v4.7c0 1.8-1.1 3.2-4.9 3.2q-2.1 0-4.1-0.5v8.5h5.9c2.2 0 4-1.8 4-4v-20z"/><path class="e" d="m23.1 4c-2.2 0-4 1.8-4 4v5.2c1-0.8 2.8-1.4 5.6-1.2q1.6 0.1 3.1 0.4v1.7c-0.9-0.5-1.9-0.8-3-0.9-2.1-0.1-3.4 0.9-3.4 2.8 0 1.8 1.3 2.9 3.4 2.7q1.6-0.1 3-0.8v1.7q-1.5 0.3-3.1 0.4c-2.8 0.2-4.6-0.4-5.6-1.2v9.2h5.9c2.2 0 4-1.8 4-4v-20z"/></g></svg>