<svg version="1.2" xmlns="http://www.w3.org/2000/svg" viewBox="0 0 49 32" width="49" height="32"><defs><clipPath clipPathUnits="userSpaceOnUse" id="cp1"><path d="m-991-316h1226v784h-1226z"/></clipPath></defs><style>.a{fill:#dfe3e8}.b{fill:#253d80}.c{fill:#189bd7}.d{fill:#242e65}</style><g clip-path="url(#cp1)"><path class="a" d="m1 4c0-2.2 1.8-4 4-4h40c2.2 0 4 1.8 4 4v24c0 2.2-1.8 4-4 4h-40c-2.2 0-4-1.8-4-4z"/><path class="b" d="m21.3 25.3l0.4-2.2h-0.8-3.7l2.6-16.2q0-0.1 0.1-0.2 0 0 0.1 0h6.2q3.1 0 4.2 1.3 0.6 0.5 0.7 1.2 0.2 0.9 0 1.8v0.5l0.4 0.2q0.4 0.2 0.7 0.5 0.4 0.6 0.5 1.3 0.2 0.9 0 1.9-0.2 1.1-0.8 2.1-0.5 0.8-1.2 1.3-0.8 0.5-1.6 0.7-1 0.3-2 0.3h-0.5q-0.6 0-1 0.3c-0.2 0.2-0.4 0.5-0.5 0.9v0.2l-0.6 3.9v0.1q0 0.1 0 0.1z"/><path class="c" d="m31.8 11.1l-0.1 0.3c-0.8 4.2-3.6 5.7-7.2 5.7h-1.8c-0.4 0-0.8 0.3-0.9 0.8l-0.9 5.9-0.3 1.7q0 0.2 0.1 0.3 0.2 0.2 0.4 0.2h3.2c0.4 0 0.7-0.3 0.8-0.7v-0.1l0.6-3.9v-0.2c0.1-0.4 0.4-0.7 0.8-0.7h0.5c3.1 0 5.6-1.2 6.3-5 0.4-1.2 0.1-2.6-0.6-3.7q-0.4-0.4-0.9-0.6z"/><path class="d" d="m30.9 10.7l-0.3-0.1h-0.5q-0.8-0.2-1.6-0.2h-4.8q-0.2 0-0.4 0.1c-0.2 0.1-0.4 0.3-0.4 0.6l-1 6.6v0.2c0.1-0.5 0.4-0.8 0.9-0.8h1.8c3.6 0 6.4-1.5 7.2-5.7l0.1-0.3q-0.4-0.2-0.7-0.3z"/><path class="b" d="m22.9 11.1c0-0.3 0.2-0.5 0.4-0.6q0.2-0.1 0.4-0.1h4.8q0.8 0 1.6 0.2h0.5l0.3 0.1 0.2 0.1q0.4 0.1 0.7 0.3c0.3-1.3 0-2.6-0.8-3.6-1-1.1-2.6-1.5-4.8-1.5h-6.2c-0.4 0-0.8 0.3-0.9 0.7l-2.6 16.5q0 0.2 0.2 0.4 0.1 0.2 0.4 0.2h3.8l1-6.1z"/></g></svg>