<svg version="1.2" xmlns="http://www.w3.org/2000/svg" viewBox="0 0 48 32" width="48" height="32"><defs><clipPath clipPathUnits="userSpaceOnUse" id="cp1"><path d="m-96-316h1226v784h-1226z"/></clipPath></defs><style>.a{fill:#dfe3e8}.b{fill:#2a2a6c}</style><g clip-path="url(#cp1)"><path class="a" d="m0 4c0-2.2 1.8-4 4-4h40c2.2 0 4 1.8 4 4v24c0 2.2-1.8 4-4 4h-40c-2.2 0-4-1.8-4-4z"/><path fill-rule="evenodd" class="b" d="m23.9 11.4l-2 9.2h-2.4l2-9.2zm12 6l-0.7-3.5-1.3 3.5zm0.4 1.9h-3l-0.5 1.4h-2.5l3.6-8.6c0.1-0.4 0.5-0.7 1-0.7h2l1.9 9.3h-2.2zm-5.9-1.7c0 1.9-1.7 3.1-4.2 3.1q-1.3 0-2.6-0.5l0.4-2c0.7 0.4 1.6 0.7 2.4 0.6 0.7 0 1.5-0.2 1.5-0.9 0-0.4-0.4-0.7-1.3-1.1-0.9-0.5-2.1-1.2-2.1-2.5 0-1.8 1.7-3.1 4-3.1q1.2 0 2.3 0.4l-0.4 2c-0.8-0.3-1.6-0.5-2.4-0.4-0.7 0.1-1 0.5-1 0.8 0 1 3.4 1.2 3.3 3.7zm-9.9-6.3l-3.8 9.3h-2.7l-1.9-7.4c0-0.4-0.2-0.7-0.5-0.8q-1.2-0.6-2.4-0.8l0.1-0.3h4c0.6 0 1.1 0.4 1.1 1l1 5.3 2.5-6.3z"/></g></svg>